<svg xmlns="http://www.w3.org/2000/svg" version="1.1" xmlns:xlink="http://www.w3.org/1999/xlink" xmlns:svgjs="http://svgjs.dev/svgjs" width="2000" height="2232" viewBox="0 0 2000 2232"><g transform="matrix(1,0,0,1,1.6365485676042226,0.6859407486040254)"><svg viewBox="0 0 293 327" data-background-color="#ffffff" preserveAspectRatio="xMidYMid meet" height="2232" width="2000" xmlns="http://www.w3.org/2000/svg" xmlns:xlink="http://www.w3.org/1999/xlink"><g id="tight-bounds" transform="matrix(1,0,0,1,-0.2395245305854985,-0.10049400752399151)"><svg viewBox="0 0 293.47927889573947 327.2" height="327.2" width="293.47927889573947"><g><svg viewBox="0 0 395.52000000000004 440.96518325566444" height="327.2" width="293.47927889573947"><g transform="matrix(1,0,0,1,0,289.2045837999369)"><svg viewBox="0 0 395.52000000000004 151.7605994557275" height="151.7605994557275" width="395.52000000000004"><g id="textblocktransform"><svg viewBox="0 0 395.52000000000004 151.7605994557275" height="151.7605994557275" width="395.52000000000004" id="textblock"><g><svg viewBox="0 0 395.52000000000004 151.7605994557275" height="151.7605994557275" width="395.52000000000004"><g transform="matrix(1,0,0,1,0,0)"><svg width="395.52000000000004" viewBox="-3.4429753870935924 -38.636579999999995 145.5492153870936 55.847089999999994" height="151.7605994557275" data-palette-color="#c8c8c8"><path d="M7.483 7.835l-7.658-18.671 4.192-1.719 7.657 18.671zM-3.263-17.47v0c-0.271-0.66-0.236-1.323 0.104-1.988 0.34-0.665 0.827-1.128 1.462-1.389v0c0.629-0.258 1.283-0.263 1.961-0.015 0.684 0.245 1.162 0.698 1.432 1.358v0c0.283 0.691 0.265 1.358-0.055 2.001-0.314 0.64-0.785 1.089-1.414 1.347v0c-0.635 0.261-1.307 0.273-2.017 0.038-0.711-0.241-1.203-0.692-1.473-1.352zM23.76 2.78v0c-1.366 0.413-2.77 0.572-4.212 0.479-1.434-0.089-2.714-0.489-3.841-1.201v0l1.058-3.067c1.037 0.529 2.042 0.859 3.016 0.991 0.973 0.131 1.88 0.069 2.722-0.186v0c0.619-0.187 1.17-0.437 1.654-0.75 0.483-0.313 0.834-0.698 1.051-1.153 0.222-0.464 0.239-1.006 0.053-1.625v0c-0.206-0.683-0.598-1.16-1.174-1.432-0.575-0.265-1.247-0.417-2.019-0.455-0.777-0.037-1.588-0.046-2.432-0.028v0c-1.749-0.05-3.182-0.414-4.299-1.093-1.124-0.677-1.888-1.686-2.294-3.026v0c-0.31-1.027-0.341-2.063-0.092-3.107 0.244-1.035 0.789-1.986 1.634-2.854 0.839-0.866 2.005-1.525 3.498-1.976v0c1.334-0.403 2.58-0.602 3.738-0.597 1.158 0.005 2.315 0.241 3.472 0.706v0l-0.904 3.23c-0.741-0.424-1.542-0.655-2.404-0.695-0.863-0.046-1.609 0.009-2.238 0.165v0c-0.539 0.128-1.024 0.358-1.453 0.689-0.423 0.33-0.738 0.714-0.947 1.153-0.209 0.439-0.243 0.892-0.102 1.358v0c0.197 0.651 0.577 1.114 1.141 1.389 0.555 0.271 1.219 0.415 1.99 0.433 0.767 0.026 1.529 0.06 2.288 0.103v0c1.048-0.01 2.016 0.105 2.904 0.345 0.887 0.24 1.661 0.633 2.32 1.179 0.659 0.546 1.144 1.333 1.455 2.361v0c0.349 1.155 0.397 2.304 0.142 3.446-0.246 1.147-0.834 2.174-1.764 3.081-0.931 0.908-2.251 1.62-3.961 2.137zM40.684-1.502l-4.461 0.783-6.521-37.152 4.363-0.766 3.841 21.886-0.232-0.802c0.44-1.424 1.281-2.692 2.521-3.803 1.24-1.111 2.802-1.832 4.686-2.163v0c1.891-0.332 3.534-0.052 4.93 0.841 1.39 0.9 2.256 2.227 2.597 3.981v0l2.578 14.685-4.511 0.792-2.301-13.11c-0.223-1.078-0.69-1.909-1.403-2.495-0.712-0.586-1.692-0.769-2.939-0.55v0c-1.149 0.202-2.132 0.713-2.949 1.533-0.811 0.819-1.383 1.837-1.719 3.053-0.329 1.208-0.367 2.535-0.113 3.98v0zM62.704-24.266l-0.355-8.963 4.526-0.179 0.355 8.963 5.556-0.22 0.141 3.557-5.556 0.22 0.655 16.507-4.527 0.179-0.654-16.507-3.707 0.147-0.141-3.557zM78.295-4.348l0.678-20.168 4.527 0.152-0.677 20.169zM78.879-31.833v0c0.024-0.713 0.327-1.303 0.909-1.771 0.583-0.467 1.217-0.69 1.904-0.666v0c0.68 0.023 1.278 0.286 1.794 0.79 0.523 0.505 0.773 1.113 0.75 1.827v0c-0.025 0.746-0.315 1.347-0.871 1.801-0.549 0.455-1.163 0.671-1.843 0.649v0c-0.686-0.023-1.304-0.287-1.855-0.793-0.55-0.512-0.813-1.125-0.788-1.837zM97.669-1.616v0c-1.866-0.28-3.5-0.937-4.902-1.97-1.409-1.034-2.438-2.395-3.088-4.084-0.649-1.695-0.805-3.667-0.467-5.915v0c0.333-2.215 1.089-4.063 2.268-5.544 1.173-1.482 2.603-2.542 4.289-3.179 1.693-0.636 3.469-0.814 5.329-0.535v0c1.866 0.28 3.377 0.945 4.534 1.996 1.158 1.043 1.987 2.193 2.486 3.447v0l-0.403 0.728 1.072-4.177 4.144 0.622-2.996 19.956-4.48-0.672 0.781-5.202 0.311 1.23c-0.179 0.297-0.524 0.663-1.035 1.099-0.509 0.429-1.162 0.847-1.958 1.253-0.802 0.405-1.694 0.71-2.675 0.913-0.987 0.196-2.057 0.207-3.21 0.034zM99.433-5.154v0c1.121 0.168 2.164 0.113 3.13-0.167 0.959-0.281 1.795-0.755 2.509-1.423 0.706-0.663 1.251-1.508 1.634-2.536v0l0.587-3.906c-0.113-1.001-0.438-1.913-0.975-2.735-0.532-0.815-1.219-1.491-2.062-2.028-0.836-0.537-1.802-0.887-2.896-1.052v0c-1.187-0.178-2.321-0.055-3.402 0.369-1.083 0.431-1.998 1.116-2.746 2.055-0.754 0.938-1.235 2.1-1.443 3.484v0c-0.193 1.286-0.062 2.502 0.393 3.649 0.454 1.153 1.149 2.114 2.085 2.882 0.937 0.761 1.999 1.23 3.186 1.408zM123.46 4.526v0c-1.703-0.541-3.133-1.456-4.29-2.747-1.165-1.286-1.935-2.817-2.309-4.593-0.375-1.77-0.238-3.678 0.411-5.724v0c0.668-2.103 1.705-3.785 3.113-5.045 1.407-1.26 3.014-2.079 4.819-2.457 1.808-0.384 3.627-0.286 5.456 0.295v0c1.735 0.551 3.145 1.418 4.232 2.602 1.094 1.18 1.853 2.501 2.277 3.965v0l-0.945 1.19 1.565-4.928 4.317 1.371-9.128 28.756-4.27-1.356 4.499-14.173-0.394 1.868c-1.078 0.819-2.451 1.331-4.117 1.537-1.667 0.205-3.412 0.018-5.236-0.561zM125.991 1.542v0c1.112 0.353 2.204 0.462 3.275 0.326 1.065-0.138 2.02-0.492 2.866-1.062 0.844-0.565 1.515-1.313 2.014-2.246v0l1.031-3.251c0.067-1.07-0.074-2.08-0.423-3.03-0.345-0.942-0.896-1.771-1.655-2.487-0.763-0.725-1.717-1.269-2.86-1.632v0c-1.144-0.363-2.305-0.406-3.484-0.13-1.179 0.276-2.226 0.832-3.142 1.668-0.914 0.829-1.572 1.879-1.975 3.15v0c-0.403 1.271-0.467 2.496-0.191 3.674 0.276 1.179 0.817 2.218 1.623 3.117 0.804 0.906 1.777 1.54 2.921 1.903z" opacity="1" transform="matrix(1,0,0,1,0,0)" fill="#c8c8c8" class="wordmark-text-0" data-fill-palette-color="primary" id="text-0"></path></svg></g></svg></g></svg></g></svg></g><g transform="matrix(1,0,0,1,75.54432000000001,0)"><svg viewBox="0 0 244.43136 241.37352743656413" height="241.37352743656413" width="244.43136"><g><svg xmlns="http://www.w3.org/2000/svg" xmlns:xlink="http://www.w3.org/1999/xlink" version="1.1" x="0" y="0" viewBox="35.113 37.92566583938658 449.774 444.1473341606134" style="enable-background:new 0 0 520 520;" xml:space="preserve" height="241.37352743656413" width="244.43136" class="icon-icon-0" data-fill-palette-color="accent" id="icon-0"><g fill="#c8c8c8" data-fill-palette-color="accent"><g fill="#c8c8c8" data-fill-palette-color="accent"><g fill="#c8c8c8" data-fill-palette-color="accent"><path d="M54.888 155.574v244.999c0 9.859 6.515 18.62 15.893 21.5h144.107c2.762 0 5 2.238 5 5v15h79.999v-15c0-2.762 2.238-5 5-5h144.105c9.381-2.879 15.895-11.641 15.895-21.5V155.574c0-12.407-10.094-22.5-22.5-22.5h-41.191c1.842 9.527 2.09 19.303 0.73 29 30.42 0 28.859-0.236 30.459 0.691 0.383 0.219 0.09-0.008 0.672 0.471 0.121 0.1 0.254 0.189 0.365 0.301 0.051 0.051 0.09 0.114 0.139 0.168 0.475 0.52 0.512 0.611 0.77 1.121 0.85 1.634 0.502-6.524 0.557 222.247 0 2.762-2.238 5-5 5-0.435 0-340.571 0.042-341.512-0.258-0.226-0.073-0.437-0.082-1.11-0.503-0.055-0.033-0.118-0.057-0.171-0.092-0.587-0.397-0.871-0.758-1.096-1.04-0.086-0.108-0.185-0.206-0.262-0.32-0.058-0.087-0.396-0.715-0.501-0.987-0.539-1.385-0.354 14.629-0.348-221.799 0-2.762 2.238-5 5-5 11.858 0 119.519 0 135.432 0-1.325-9.674-1.041-19.475 0.783-29H77.388C64.981 133.074 54.888 143.167 54.888 155.574z" fill="#c8c8c8" data-fill-palette-color="accent"></path><path d="M252.303 83.864l1.295 2.431 0 0 40.758-21.7-1.295-2.431c-1.044-1.965-3.494-2.753-5.512-1.682l-33.564 17.869C252.001 79.407 251.247 81.881 252.303 83.864z" fill="#c8c8c8" data-fill-palette-color="accent"></path><path d="M254.653 97.063c-22.101 24.664-26.502 60.729-10.905 90.024 20.758 38.989 68.812 53.028 107.059 32.667 39.041-20.784 52.965-68.943 32.668-107.059-15.91-29.885-48.451-45.707-80.777-41.213C299.682 73.088 316.291 64.246 254.653 97.063zM304.961 90.44c25.426-3.814 50.635 8.874 62.723 31.579 1.299 2.438 0.375 5.465-2.063 6.764-2.438 1.297-5.467 0.373-6.764-2.064-10.102-18.973-31.156-29.576-52.412-26.389-2.73 0.408-5.275-1.473-5.685-4.203C300.35 93.396 302.23 90.851 304.961 90.44zM337.879 195.471c2.436-1.296 5.467-0.373 6.762 2.064 1.299 2.438 0.375 5.465-2.063 6.763-29.916 15.927-66.605 4.333-82.277-25.106-1.299-2.438-0.375-5.465 2.063-6.764 2.438-1.295 5.467-0.373 6.764 2.064C282.329 199.288 313.079 208.675 337.879 195.471z" fill="#c8c8c8" data-fill-palette-color="accent"></path><path d="M355.506 228.582c-50.523 26.9-113.796-0.178-128.226-56.508h-44.035L97.336 382.073h240.771l84.383-209.999h-22.543C393.592 196.678 377.623 216.807 355.506 228.582zM254.888 367.073h-105c-2.762 0-5-2.238-5-5 0-2.762 2.238-5 5-5h105c2.761 0 4.999 2.238 4.999 5C259.887 364.835 257.648 367.073 254.888 367.073zM284.887 347.073H179.888c-2.762 0-5-2.238-5-5 0-2.762 2.238-5 5-5h104.999c2.762 0 5 2.238 5 5C289.887 344.835 287.648 347.073 284.887 347.073zM299.887 327.073H149.888c-2.762 0-5-2.238-5-5 0-2.762 2.238-5 5-5h149.999c2.762 0 5 2.238 5 5C304.887 324.835 302.648 327.073 299.887 327.073zM299.887 307.073H149.888c-2.762 0-5-2.238-5-5 0-2.762 2.238-5 5-5h149.999c2.762 0 5 2.238 5 5C304.887 304.835 302.648 307.073 299.887 307.073z" fill="#c8c8c8" data-fill-palette-color="accent"></path><polygon points="94.888,361.645 172.439,172.074 94.888,172.074    " fill="#c8c8c8" data-fill-palette-color="accent"></polygon><polygon points="424.887,192.928 348.885,382.073 424.887,382.073    " fill="#c8c8c8" data-fill-palette-color="accent"></polygon><path d="M124.888 92.074c5.514 0 10-4.486 10-10 0-5.515-4.486-10-10-10-5.514 0-10 4.485-10 10C114.888 87.588 119.374 92.074 124.888 92.074z" fill="#c8c8c8" data-fill-palette-color="accent"></path><path d="M309.887 447.073c0 2.762-2.238 5-5 5h-89.999c-2.762 0-5-2.238-5-5v-15H35.113c2.533 27.994 26.132 50 54.774 50h339.999c28.643 0 52.242-22.006 54.775-50H309.887V447.073z" fill="#c8c8c8" data-fill-palette-color="accent"></path><path d="M449.887 92.074c11.029 0 20-8.973 20-20 0-11.028-8.971-20-20-20-11.027 0-20 8.972-20 20C429.887 83.102 438.859 92.074 449.887 92.074z" fill="#c8c8c8" data-fill-palette-color="accent"></path><circle cx="57.388" cy="99.574" r="7.5" fill="#c8c8c8" data-fill-palette-color="accent"></circle><circle cx="172.388" cy="54.574" r="7.5" fill="#c8c8c8" data-fill-palette-color="accent"></circle><circle cx="382.387" cy="54.574" r="7.5" fill="#c8c8c8" data-fill-palette-color="accent"></circle><circle cx="477.387" cy="119.574" r="7.5" fill="#c8c8c8" data-fill-palette-color="accent"></circle><path d="M199.636 94.814c4.737 8.896 15.807 12.229 24.648 7.521 8.89-4.733 12.258-15.758 7.522-24.65l-2.825-5.305c-4.32-8.119-1.251-18.184 6.867-22.506 8.098-4.313 18.195-1.23 22.505 6.867l3.299 6.197 8.828-4.699-3.299-6.197c-6.902-12.966-23.068-17.898-36.032-10.995-12.994 6.917-17.916 23.034-10.994 36.032l2.824 5.305c2.136 4.012 0.619 8.987-3.394 11.123-4.003 2.131-8.992 0.609-11.123-3.393l-6.214-11.673c-1.297-2.438-4.326-3.359-6.763-2.063-2.438 1.298-3.361 4.325-2.064 6.763L199.636 94.814z" fill="#c8c8c8" data-fill-palette-color="accent"></path></g></g></g></svg></g></svg></g><g></g></svg></g><defs></defs></svg><rect width="293.47927889573947" height="327.2" fill="none" stroke="none" visibility="hidden"></rect></g></svg></g></svg>